<?xml version="1.0" encoding="UTF-8" standalone="no"?>
<!-- Created with Inkscape (http://www.inkscape.org/) -->

<svg
   version="1.1"
   id="svg1"
   width="512"
   height="512"
   viewBox="0 0 512 512"
   xmlns="http://www.w3.org/2000/svg"
   xmlns:svg="http://www.w3.org/2000/svg">
  <defs
     id="defs1" />
  <g
     id="g1">
    <path
       style="fill:#000000"
       d="m 339.66627,489.43987 c -9.85888,-1.4084 -11.80445,-2.78386 -20.95508,-14.81454 -10.59888,-13.93475 -15.7884,-17.19367 -30.19726,-18.96329 -17.3944,-2.13629 -19.40268,-2.75448 -23.43001,-7.21226 -9.47142,-10.48373 -22.47711,-34.88809 -22.47711,-42.17688 0,-1.81593 2.25,-8.86568 5,-15.6661 4.37767,-10.82546 5,-13.25253 5,-19.5 0,-6.24747 -0.62233,-8.67454 -5,-19.5 -2.75,-6.80042 -5,-13.82178 -5,-15.60302 0,-3.97092 5.53696,-17.33488 10.88451,-26.27076 5.19518,-8.68128 13.06133,-18.32075 16.17345,-19.81954 1.36281,-0.65633 8.31884,-1.94653 15.45785,-2.86711 18.16422,-2.3423 22.2006,-4.72311 33.93541,-20.01644 5.98101,-7.79472 9.56946,-11.58329 11.66256,-12.31295 9.36674,-3.26526 35.06297,-3.84091 46.88622,-1.05034 5.51883,1.30257 7.24573,2.86986 16.67452,15.13333 10.17778,13.23764 14.80083,15.80787 32.74345,18.20404 7.10489,0.94884 14.20932,2.39293 15.78762,3.20911 6.7781,3.5051 25.1481,34.15596 26.4967,44.21059 0.4005,2.98621 -0.5661,6.41942 -4.5976,16.32962 -4.6317,11.38586 -5.1047,13.27155 -5.1047,20.35347 0,7.08192 0.473,8.96761 5.1047,20.35347 4.1863,10.2906 5.007,13.27695 4.5617,16.5973 -1.3099,9.76593 -19.7776,40.49595 -26.3788,43.89388 -1.5332,0.78921 -8.62363,2.21843 -15.75656,3.17605 -18.19497,2.44272 -22.03374,4.66387 -34.03103,19.69074 -4.95,6.19998 -10.12848,11.81107 -11.50773,12.46908 -6.08654,2.90375 -28.58862,4.05886 -41.93281,2.15255 z m 28.60127,-23.68275 c 1.18841,-0.35768 5.78965,-5.24793 10.22498,-10.86723 5.70113,-7.22299 9.31698,-10.84834 12.33927,-12.3717 2.35126,-1.18514 6.75002,-3.62209 9.77502,-5.41545 4.6492,-2.75625 7.416,-3.51972 17.88595,-4.9354 14.03817,-1.89816 13.33581,-1.43752 20.09166,-13.17716 7.02898,-12.21424 6.97688,-11.45815 1.67546,-24.33307 l -4.65307,-11.30028 v -12.3277 -12.3277 l 4.62592,-11.29453 c 5.26457,-12.85372 5.31727,-12.07933 -1.64831,-24.18348 -6.77875,-11.77943 -6.0295,-11.29274 -20.60584,-13.38511 -11.51507,-1.65295 -13.5724,-2.26318 -19.51909,-5.7896 -3.65602,-2.16805 -8.00114,-4.68416 -9.65581,-5.59134 -1.65467,-0.90719 -6.46218,-6.1457 -10.68334,-11.64114 -8.63531,-11.2421 -8.57116,-11.20943 -22.01353,-11.20943 -13.5463,0 -13.50194,-0.0226 -22.15395,11.26486 -4.22437,5.51111 -9.00159,10.74357 -10.61604,11.62767 -1.61446,0.88411 -5.90642,3.36547 -9.53769,5.51415 -5.88398,3.48162 -8.01882,4.11307 -19.62148,5.80369 -7.16055,1.04335 -13.2558,2.23197 -13.54501,2.64137 -5.31908,7.52956 -7.26472,10.65067 -9.89288,15.86974 -1.72312,3.42182 -3.13295,6.84285 -3.13295,7.60229 0,0.75943 2.025,6.21416 4.5,12.1216 l 4.5,10.74081 v 12.25919 12.25919 l -4.5,10.74081 c -2.475,5.90745 -4.5,11.38675 -4.5,12.17624 0,0.78948 1.40983,4.23509 3.13295,7.65691 2.62632,5.21542 4.59873,8.37948 9.89072,15.86624 0.28802,0.40746 6.13802,1.48865 13,2.40264 11.3198,1.50775 13.14023,2.04607 19.63825,5.8072 3.93906,2.27997 8.48108,4.87152 10.09338,5.759 1.61229,0.88748 6.42516,6.15 10.69524,11.69449 4.59448,5.9657 8.63854,10.25207 9.90663,10.50022 3.44233,0.67362 21.94001,0.55337 24.30356,-0.15799 z m -23.66073,-47.6758 c -18.33669,-5.09506 -32.18281,-19.47305 -35.89492,-37.27374 -5.37198,-25.76034 11.7425,-51.68382 37.69414,-57.0957 23.41959,-4.88385 47.00862,8.59039 55.40224,31.64619 2.94422,8.08726 2.94422,23.4102 0,31.49746 -5.21691,14.32994 -15.94626,24.99136 -30.09531,29.90477 -7.66071,2.66027 -20.10386,3.26668 -27.10615,1.32102 z m 22.57239,-25.272 c 8.59762,-4.4204 12.87483,-11.63031 12.87483,-21.70252 0,-7.55488 -1.56104,-11.72045 -6.31138,-16.84158 -4.64283,-5.00524 -9.84435,-7.09902 -17.63584,-7.09902 -7.79149,0 -12.99301,2.09378 -17.63584,7.09902 -4.75034,5.12113 -6.31138,9.2867 -6.31138,16.84158 0,11.72002 6.02513,19.88164 17.44075,23.62517 3.97084,1.30217 13.28885,0.28302 17.57886,-1.92265 z M 45.369377,417.04141 c -6.00539,-3.25849 -7.09849,-11.6043 -4.28675,-32.72932 C 54.907387,280.44454 156.50867,212.7909 258.10681,239.80135 c 16.16658,4.29797 20,7.28581 20,15.58831 0,3.79084 -0.50922,4.83749 -3.83759,7.88771 -4.60186,4.21728 -6.13704,4.18776 -23.69178,-0.45562 -41.88441,-11.0788 -84.7665,-3.82986 -121.42741,20.52651 -12.71952,8.45045 -30.821383,26.34436 -39.208983,38.75854 -16.09634,23.82363 -24.39885,48.41642 -26.22805,77.68991 l -0.75617,12.10121 -3.66032,3.35444 c -4.12269,3.77816 -9.08612,4.41575 -13.92713,1.78905 z M 194.94095,220.12608 c -25.78346,-4.67832 -49.68996,-19.74441 -64.69406,-40.77077 -6.01064,-8.42316 -13.10715,-23.33969 -15.81791,-33.24851 -1.84578,-6.74698 -2.19903,-10.74097 -2.25537,-25.5 -0.0793,-20.765911 1.51332,-28.317381 9.38492,-44.499997 13.41797,-27.58496 36.94508,-46.57733 67.68307,-54.637478 12.33931,-3.235624 33.75164,-3.261915 46.67219,-0.0573 12.31535,3.054504 22.63466,7.574528 32.76929,14.35347 35.29352,23.607447 52.21162,65.896905 42.93043,107.311395 -4.85884,21.68116 -19.35298,44.10651 -37.1984,57.55344 -22.88533,17.24461 -52.22058,24.44083 -79.47416,19.49576 z m 35.66586,-24.55889 c 16.288,-3.88152 32.48036,-14.05374 42.56304,-26.73856 5.82243,-7.32508 12.892,-21.74639 15.06038,-30.72183 2.29453,-9.49764 2.27508,-26.79508 -0.0405,-36 -4.11986,-16.377592 -15.18455,-33.49038 -27.84722,-43.068877 -7.49551,-5.669874 -19.84439,-11.745566 -28.7357,-14.138069 -8.93952,-2.405474 -29.06048,-2.405474 -38,0 -22.58487,6.077209 -42.53952,22.87127 -51.6692,43.485383 -9.14337,20.645013 -8.69393,45.747903 1.17958,65.883543 15.88818,32.40175 52.43344,49.6525 87.48962,41.29841 z"
       id="path1" />
  </g>
</svg>
