<?xml version="1.0" encoding="UTF-8" standalone="no"?>
<!-- Created with Inkscape (http://www.inkscape.org/) -->

<svg
   version="1.1"
   id="svg1"
   width="62.9347"
   height="62.9347"
   viewBox="0 0 62.9347 62.9347"
   xmlns="http://www.w3.org/2000/svg"
   xmlns:svg="http://www.w3.org/2000/svg">
  <defs
     id="defs1" />
  <g
     id="g1">
    <g
       id="g9"
       transform="matrix(0.92241939,0,0,0.91425296,2.9119686,2.9125451)">
      <path
         style="fill:#414141;fill-opacity:1;stroke-width:0.793181"
         d="m 15.605578,53.284141 c -0.281363,-0.09939 -0.616206,-0.240968 -0.744098,-0.31461 -0.746799,-0.430012 -1.469384,-1.3838 -1.823035,-2.406341 -0.170702,-0.493565 -0.177625,-1.098308 -0.202972,-17.731451 -0.01523,-9.990957 0.0095,-17.548947 0.05895,-18.00291 0.222992,-2.048144 1.569988,-3.534571 3.423898,-3.778314 0.435113,-0.0572 7.046529,-0.08422 16.401522,-0.067 15.138048,0.02785 15.688432,0.03546 16.137633,0.223019 1.115557,0.465796 1.973561,1.359727 2.388311,2.488315 0.211578,0.575732 0.216595,0.671577 0.243285,4.647815 l 0.02725,4.05996 -12.862948,0.02799 -12.862948,0.02799 -0.542268,0.240351 c -0.725222,0.321443 -1.457767,1.126337 -1.750316,1.923185 l -0.218748,0.595825 -0.02546,14.128952 -0.02546,14.128951 -3.555508,-0.0055 c -3.136423,-0.0048 -3.615806,-0.0268 -4.067076,-0.186212 z"
         id="path12" />
      <path
         style="fill:#f9f9f9;fill-opacity:1;stroke-width:0.873857"
         d="M 3.9325387,44.402111 C 3.6174195,44.294394 3.2424021,44.140963 3.0991662,44.061154 2.2627691,43.59513 1.4534904,42.561468 1.0574089,41.453295 0.86622684,40.918396 0.85847325,40.26301 0.83008438,22.236931 0.81303309,11.409285 0.84074567,3.2183536 0.89610304,2.7263737 1.1458485,0.50670901 2.6544538,-1.104198 4.7307908,-1.3683532 c 0.4873161,-0.061993 7.8919512,-0.091269 18.3693292,-0.072616 16.954267,0.030185 17.570685,0.03843 18.073779,0.2416956 1.249399,0.50480365 2.210344,1.47359689 2.674854,2.6966978 0.236963,0.6239467 0.242581,0.7278177 0.272474,5.0370444 l 0.03052,4.3999584 -14.406207,0.03033 -14.406207,0.03033 -0.607328,0.260479 c -0.812232,0.348362 -1.632666,1.220662 -1.960315,2.084242 l -0.244992,0.645721 -0.02852,15.312176 -0.02852,15.312175 -3.9820877,-0.0059 C 4.9748486,44.59878 4.4379499,44.57494 3.9325384,44.402174 Z"
         id="path12-8" />
      <path
         style="fill:#830546;stroke-width:0.831178;fill-opacity:1"
         d="M 25.43834,63.947962 C 24.70777,63.832717 24.064003,63.454287 23.516552,62.818265 22.597825,61.7509 22.676679,63.616851 22.676679,42.944154 V 24.731078 l 0.2579,-0.583832 c 0.368081,-0.833264 0.803457,-1.30939 1.557973,-1.703799 l 0.658687,-0.344316 h 17.154977 c 19.471698,0 17.714084,-0.08373 18.719322,0.891783 0.637979,0.619116 0.952038,1.261027 1.073938,2.195045 0.05554,0.425543 0.08196,7.813428 0.06579,18.39387 l -0.02703,17.682679 -0.280302,0.644029 c -0.348946,0.801746 -0.929856,1.415289 -1.70269,1.798338 l -0.594897,0.294857 -16.805863,0.01436 c -9.243225,0.0079 -17.035487,-0.02186 -17.316139,-0.06613 z"
         id="path9" />
    </g>
  </g>
</svg>
