<?xml version="1.0" encoding="UTF-8"?>
<!-- Created with Inkscape (http://www.inkscape.org/) -->
<svg width="632" height="657" version="1.1" viewBox="0 0 632 657" xmlns="http://www.w3.org/2000/svg" xmlns:cc="http://creativecommons.org/ns#" xmlns:dc="http://purl.org/dc/elements/1.1/" xmlns:rdf="http://www.w3.org/1999/02/22-rdf-syntax-ns#">
 <title>cart-catalog</title>
 <g transform="translate(-16.09 8.0449)">
  <path d="m115.5 625.42c-4.95-0.76037-10.8-2.1511-13-3.0906-6.9539-2.9695-16.256-10.168-20.809-16.103-5.4549-7.1106-7.9016-12.586-10.16-22.735-1.494-6.7154-1.5959-9.1933-0.67594-16.451 0.59568-4.6995 1.3403-13.944 1.6546-20.544 0.31437-6.6 1.0215-16.725 1.5714-22.5 0.54989-5.775 1.6598-20.625 2.4665-33 3.009-46.16 4.3174-64.637 4.9216-69.5 0.34168-2.75 1.2792-15.35 2.0833-28 2.6227-41.257 4.2838-64.906 4.9167-70 0.34168-2.75 1.2799-15.35 2.0849-28 3.378-53.082 5.9249-86.244 7.0475-91.76 1.1531-5.6666 7.0234-16.757 11.374-21.489 6.9107-7.5156 13.825-11.947 23.91-15.323 4.8651-1.6286 8.1227-3.767 29.036-3.484l27.452-0.26163 1e-3 2.829c3e-3 6.0544 0.13213 95.536 0.0573 127.09l0.32724 28.492 0.99079 8.1392c0.9006 7.3982 12.197 13.927 22.278 13.163 4.1664-0.31603 5.5247-1.2428 7.3112-1.9892 4.148-1.7332 7.3196-5.7705 9.8301-10.691 1.9008-3.7258 1.5733-5.7971 1.7244-84.331l-0.15804-82.541 196.53-0.31605-1e-5 83.752c-1e-5 77.93-0.096 79.686 1.7981 83.399 4.2088 8.25 10.245 12.875 20.613 12.702 7.9899-0.13328 16.119-8.0658 16.489-9.0592l2.2821-6.1361c1.3043-27.153 1.0508-53.042 1.1416-80.196l0.43054-84.225 24.546-0.079c21.321-0.0686 24.145 2.0181 30.227 3.9678 13.47 4.3179 24.463 13.738 30.515 26.151 4.4892 9.2064 6.1299 19.727 7.6723 49.199 0.60448 11.55 1.3423 22.237 1.6396 23.749 0.50742 2.5808 1.0577 10.403 4.8012 68.251 0.81862 12.65 1.7721 25.475 2.1189 28.5 0.62396 5.4428 1.9914 24.92 4.8795 69.5 0.81951 12.65 1.7738 25.475 2.1205 28.5 0.60368 5.2659 1.6114 19.597 4.8523 69 0.81178 12.375 2.0258 27.926 2.6978 34.557 1.0914 10.77 1.0335 12.852-0.54199 19.5-2.6809 11.313-7.0458 19.555-14.004 26.443-9.7262 9.6279-16.673 12.993-31.042 15.039-14.637 2.0842-412.38 1.9763-426-0.11562z" fill="#623297"/>
 </g>
 <path transform="translate(-16.09 8.0449)" d="m204.5 342.3c-5.6625-1.6932-9.9705-3.8096-12.825-9.3479-1.878-3.6441-3.0244-7.8389-2.3736-64.712 0.36965-32.305 0.41109-67.464-5e-3 -79.966l-0.20249-24.706-0.0441-0.13252 0.0349-0.0535-0.0817-0.38704-0.00328 0.00798v-10.47c0-10.552 2.3142-30.325 3.9828-34.03 0.49541-1.1 1.198-3.5094 1.5613-5.3543 0.94832-4.8152 9.8514-24.873 12.715-28.646 0.41747-0.55 3.548-4.9816 6.9568-9.8479 12.607-17.998 35.095-36.141 55.784-45.007 3.575-1.5319 7.4-3.1936 8.5-3.6925 6.0148-2.7283 17.279-5.7065 30-7.932 6.3403-1.1092 35.235-1.1202 42.5-0.01618 7.2281 1.0984 18.98 3.7737 21.5 4.8944 1.1 0.48925 4.25 1.6654 7 2.6137 29.919 10.317 60.566 37.799 75.817 67.987 5.0292 9.9549 7.348 15.479 8.1852 19.5 0.40079 1.925 1.0846 3.95 1.5196 4.5 0.43501 0.55 1.1148 3.25 1.5107 6s1.0979 5.478 1.5602 6.0622 1.0977 5.5342 1.412 11c0.31434 5.4658 0.81421 12.741 1.1108 16.168l0.53931 6.2299 0.0514 0.52852-0.0276 0.13346-0.0498 0.0705-0.12889 0.30763v78.951c0 52.806-0.51602 81.489-1.2391 84.861-1.5004 6.9962-7.4466 12.374-14.9 14.541-4.8541 1.4111-5.9621 1.4216-10.359 0.0984-6.6187-1.9919-10.624-4.8979-13.558-9.8372l-2.4436-4.1134-0.27251-82.25-0.1145-82.882-98.215 1.2641-98.056 0.15801 0.14802 79.96-0.089 81.145-1.702 5.4072c-0.91301 2.9006-5.842 7.198-7.7154 8.6142-2.9544 2.2334-10.756 4.2809-12.412 3.9794-0.31452-0.0573-2.8219-0.7769-5.5719-1.5992zm223.18-188.55c-1.0952-37.473-20.96-66.93-53.824-84.019-13.408-6.9718-26.56-10.004-43.859-10.112-11.41-0.071358-28.423 2.4034-30.448 4.4293-0.52336 0.52336-1.6162 0.95156-2.4285 0.95156-1.5014 0-17.516 7.4627-19.524 9.0983-0.6044 0.49218-3.8578 2.9193-7.2298 5.3935-7.9444 5.8293-17.189 15.759-22.583 24.256-6.3957 10.075-13.182 26.954-14.327 33.301-0.38203 2.1179 0.85778-2.0149 0.34098-1.3621-0.51679 0.65275-1.2011 7.0652-1.5206 14.25l-0.34395 15.354 98.643-0.63206 97.378-1.5802z" fill="#9cce24"/>
 <metadata>
  <rdf:RDF>
   <cc:Work rdf:about="">
    <dc:title>cart-catalog</dc:title>
   </cc:Work>
  </rdf:RDF>
 </metadata>
</svg>
