<?xml version="1.0" encoding="UTF-8" standalone="no"?>
<!-- Created with Inkscape (http://www.inkscape.org/) -->

<svg
   version="1.1"
   id="svg1"
   width="512"
   height="512"
   viewBox="0 0 512 512"
   xmlns="http://www.w3.org/2000/svg"
   xmlns:svg="http://www.w3.org/2000/svg">
  <defs
     id="defs1" />
  <g
     id="g1">
    <path
       style="fill:#000000"
       d="m 322.45872,465.19049 c -9.43718,-2.56853 -18.18123,-11.33245 -20.72235,-20.76944 -0.67484,-2.50616 -0.96006,-13.02366 -0.76359,-28.15734 l 0.31361,-24.15691 2.96638,-5.35555 c 3.29379,-5.94668 7.76497,-10.07542 14.53362,-13.42052 4.35709,-2.15331 5.63531,-2.2337 40.25,-2.53163 l 35.75,-0.30771 V 254.6068 138.72221 l -35.75,-0.30771 c -34.61469,-0.29793 -35.89291,-0.37832 -40.25,-2.53163 -6.76865,-3.3451 -11.23983,-7.47384 -14.53362,-13.42052 l -2.96638,-5.35555 V 90.606805 c 0,-25.58857 0.0776,-26.64522 2.25614,-30.722198 3.53847,-6.621992 7.90238,-10.962766 14.06226,-13.987719 l 5.6816,-2.790085 h 72.5 c 72.06849,0 72.52767,0.01279 77.14917,2.149166 5.94273,2.74714 12.45452,9.258938 15.20166,15.201668 l 2.14917,4.649168 v 189.499995 189.5 l -2.14917,4.64917 c -2.74175,5.93107 -8.64762,11.83694 -14.92792,14.92792 l -4.92291,2.42291 -70.5,0.19882 c -55.61266,0.15684 -71.51945,-0.0786 -75.32767,-1.11513 z M 471.87414,453.1068 c 2.34229,-1.65 5.30575,-4.98328 6.58548,-7.40728 l 2.32677,-4.40729 V 254.6068 67.921365 l -2.32677,-4.40728 c -1.27973,-2.424004 -4.24318,-5.757282 -6.58546,-7.407282 l -4.25868,-3 L 397.95093,52.803 c -47.80965,-0.208495 -70.82684,0.03515 -73.36947,0.77664 -4.84457,1.412784 -9.39361,5.319904 -11.88905,10.211375 -1.87065,3.66677 -1.98599,5.54558 -1.70615,27.79092 l 0.30013,23.858275 3,4.24424 c 1.65,2.33433 4.8,5.18431 7,6.33329 3.83176,2.00119 5.6719,2.10096 43.75,2.37194 l 39.75,0.28289 v 125.92404 125.92405 l -39.83035,0.29307 -39.83035,0.29307 -4.84201,3 c -3.1786,1.96939 -5.64164,4.51407 -7.16965,7.40728 -2.24064,4.24255 -2.32764,5.26261 -2.32764,27.28984 0,24.82195 0.4447,27.16817 6.15982,32.49904 5.79744,5.40765 3.6292,5.27137 80.0047,5.02853 l 70.66452,-0.22469 z M 178.06692,401.43556 c -2.32071,-1.28082 -35.84571,-30.47576 -74.5,-64.87765 -80.086518,-71.27612 -76.280528,-67.1872 -76.280528,-81.95111 0,-14.76391 -3.80599,-10.67499 76.280528,-81.95111 38.65429,-34.40189 72.17929,-63.59683 74.5,-64.87765 9.03872,-4.98853 21.28741,-0.93419 26.3927,8.73604 2.30093,4.35834 2.32677,4.77728 2.32677,37.7192 v 33.3119 l 73.75,0.28081 c 72.92424,0.27767 73.80176,0.30474 78.3724,2.41814 6.29013,2.90846 11.94804,8.23335 14.91051,14.0329 l 2.46709,4.82977 v 45.5 45.5 l -2.46709,4.82977 c -2.96247,5.79955 -8.62038,11.12444 -14.91051,14.0329 -4.57064,2.1134 -5.44816,2.14047 -78.3724,2.41814 l -73.75,0.28081 v 33.3119 c 0,32.94192 -0.0258,33.36086 -2.32677,37.7192 -5.10529,9.67023 -17.35398,13.72457 -26.3927,8.73604 z m 13.73949,-9.33911 c 1.60638,-0.83069 3.38403,-2.37611 3.95034,-3.43426 0.65377,-1.22159 1.02964,-15.63713 1.02964,-39.48965 V 311.6068 l 76.25,-0.006 c 52.29795,-0.004 77.5065,-0.35076 80.25,-1.10446 2.48456,-0.68257 5.57762,-2.73689 8.16415,-5.42238 6.22887,-6.46723 6.51738,-8.98566 6.15025,-53.6863 -0.30746,-37.43591 -0.36388,-38.37385 -2.55517,-42.47335 -2.68132,-5.01625 -7.30551,-8.71443 -12.75923,-10.20415 -2.72776,-0.74511 -28.09296,-1.0944 -79.75,-1.0982 l -75.75,-0.005 V 160.5573 c 0,-40.18769 -0.14253,-41.32736 -5.47206,-43.75565 -3.29619,-1.50185 -6.41908,-1.47091 -9.15854,0.0907 -1.17184,0.66801 -33.44431,29.05394 -71.71661,63.07985 -74.027798,65.81432 -73.652788,65.43535 -73.652788,74.43025 0,9.56916 -1.83673,7.70172 73.223438,74.44775 38.50644,34.24122 70.97129,62.80331 72.14413,63.47132 2.90485,1.65452 6.16493,1.57855 9.65245,-0.22491 z"
       id="path1" />
  </g>
</svg>
