<svg width="53" height="48" viewBox="0 0 53 48" fill="none" xmlns="http://www.w3.org/2000/svg">
<path d="M49.25 35C49.25 37.209 47.3098 39 44.9167 39H8.08333C5.69025 39 3.75 37.209 3.75 35V13C3.75 10.791 5.69025 9 8.08333 9H44.9167C47.3098 9 49.25 10.791 49.25 13V35Z" fill="#1565C0"/>
<path d="M16.9516 19L14.1067 26.832C14.1067 26.832 13.3841 23.519 13.3126 23.103C11.6931 19.692 9.30322 19.882 9.30322 19.882L12.1199 30V29.998H15.5443L20.2796 19H16.9516ZM19.6631 30H22.7734L24.6541 19H21.5048L19.6631 30ZM41.6754 19H38.4026L33.3001 30H36.3898L37.0268 28.429H40.9225L41.254 30H44.0847L41.6754 19ZM37.8891 26.328L39.5824 22.171L40.4686 26.328H37.8891ZM29.0665 22.206C29.0665 21.6 29.606 21.149 31.153 21.149C32.1583 21.149 33.3099 21.823 33.3099 21.823L33.8147 19.514C33.8147 19.514 32.3436 18.999 30.8995 18.999C27.6289 18.999 25.9421 20.443 25.9421 22.271C25.9421 25.577 30.2527 25.124 30.2527 26.822C30.2527 27.113 30.0025 27.786 28.2074 27.786C26.4069 27.786 25.2185 27.177 25.2185 27.177L24.6822 29.393C24.6822 29.393 25.8338 29.999 28.059 29.999C30.2896 29.999 33.3836 28.459 33.3836 26.247C33.3836 23.586 29.0665 23.394 29.0665 22.206Z" fill="white"/>
<path d="M13.7295 24.945L12.683 20.197C12.683 20.197 12.2096 19.168 10.9789 19.168C9.74828 19.168 6.16895 19.168 6.16895 19.168C6.16895 19.168 12.3017 20.84 13.7295 24.945Z" fill="#FFC107"/>
</svg>
